<svg xmlns="http://www.w3.org/2000/svg" xmlns:xlink="http://www.w3.org/1999/xlink" version="1.1" x="0px" y="0px" viewBox="0 0 64 80" style="enable-background:new 0 0 64 64;" xml:space="preserve"><path d="M56,40.678V36c0-2.757-2.243-5-5-5h-2.511c0.884-0.956,1.646-2.016,2.281-3.166C51.174,27.94,51.585,28,52,28  c2.757,0,5-2.243,5-5c0-2.428-1.742-4.453-4.04-4.903C52.57,9.446,46.659,2.878,38.648,2.083C38.108,2.028,37.558,2,37,2  c-0.561,0-1.114,0.028-1.657,0.083C27.337,2.882,21.43,9.449,21.04,18.097C18.742,18.547,17,20.572,17,23c0,2.757,2.243,5,5,5  c0.415,0,0.826-0.06,1.23-0.166c0.635,1.149,1.397,2.209,2.281,3.166H23c-2.757,0-5,2.243-5,5v4.679  c-3.026,1.38-5.14,4.132-5.778,7.321H3c-0.294,0-0.573,0.129-0.763,0.354s-0.271,0.521-0.223,0.811l2,12C4.094,61.646,4.511,62,5,62  h6c0.489,0,0.906-0.354,0.986-0.836l1.209-7.256c1.081,1.601,2.81,2.724,4.804,3.012V57c0,2.757,2.243,5,5,5h28c2.757,0,5-2.243,5-5  v-0.08c3.387-0.488,6-3.401,6-6.92C62,45.988,59.645,42.34,56,40.678z M10.153,60H5.847L4.181,50h7.639L10.153,60z M55,23  c0,1.762-1.568,3.189-3.322,2.981c0.078-0.194,0.139-0.396,0.21-0.594c0.074-0.205,0.151-0.407,0.217-0.615  c0.159-0.497,0.3-1.003,0.417-1.517c0.044-0.192,0.076-0.388,0.114-0.583c0.085-0.437,0.158-0.878,0.212-1.323  c0.025-0.21,0.044-0.421,0.063-0.634c0.016-0.186,0.044-0.369,0.055-0.556C54.147,20.562,55,21.684,55,23z M23.051,17.838  c0.029-0.439,0.076-0.871,0.137-1.296c0.008-0.055,0.014-0.11,0.022-0.165c0.069-0.448,0.154-0.888,0.257-1.319  c0.006-0.024,0.011-0.047,0.016-0.071c1.23-5.073,4.77-8.948,9.439-10.383c0.056-0.017,0.114-0.028,0.17-0.045  c0.368-0.108,0.741-0.206,1.123-0.283c0.169-0.034,0.345-0.052,0.517-0.08c0.279-0.045,0.556-0.096,0.842-0.125  C36.041,4.026,36.517,4,37,4c0.497,0,0.987,0.025,1.468,0.074c0.016,0.002,0.032,0.005,0.048,0.007  c5.252,0.554,9.47,3.969,11.377,8.872c0.023,0.061,0.048,0.122,0.071,0.184c0.12,0.32,0.223,0.651,0.323,0.984  c0.055,0.187,0.112,0.373,0.161,0.564c0.054,0.208,0.098,0.421,0.145,0.633c0.066,0.309,0.132,0.619,0.181,0.937  c0.016,0.101,0.027,0.205,0.041,0.307c0.057,0.414,0.105,0.832,0.133,1.259c0,0.007,0,0.013,0.001,0.02  c-3.299,0.668-7.484-0.922-10.677-4.114c-1.002-1.003-1.865-2.128-2.564-3.346c-0.356-0.621-1.378-0.621-1.734,0  c-0.699,1.218-1.562,2.343-2.564,3.346c-3.063,3.062-7.119,4.675-10.361,4.175C23.05,17.881,23.05,17.86,23.051,17.838z   M22.322,25.981C20.567,26.189,19,24.762,19,23c0-1.316,0.853-2.438,2.035-2.841c0.011,0.187,0.039,0.37,0.055,0.556  c0.019,0.212,0.038,0.424,0.063,0.634c0.054,0.445,0.127,0.886,0.212,1.323c0.038,0.195,0.07,0.391,0.114,0.583  c0.117,0.514,0.258,1.02,0.417,1.517c0.067,0.208,0.143,0.411,0.217,0.615C22.184,25.585,22.245,25.788,22.322,25.981z   M24.511,25.978c-0.153-0.329-0.286-0.67-0.416-1.012c-0.075-0.195-0.157-0.385-0.224-0.583c-0.144-0.43-0.262-0.872-0.371-1.317  c-0.032-0.132-0.075-0.259-0.104-0.392c-0.111-0.506-0.19-1.022-0.254-1.542c-0.011-0.091-0.032-0.178-0.042-0.269  c-0.034-0.313-0.035-0.632-0.051-0.948c3.833,0.468,8.312-1.311,11.774-4.774c0.743-0.743,1.418-1.547,2.017-2.4  c0.599,0.854,1.274,1.657,2.018,2.4c3.115,3.115,6.99,4.856,10.51,4.856c0.538,0,1.067-0.044,1.585-0.127  c-0.017,0.331-0.019,0.664-0.054,0.992c-0.01,0.091-0.03,0.178-0.042,0.269c-0.064,0.52-0.143,1.036-0.254,1.542  c-0.029,0.133-0.072,0.26-0.104,0.392c-0.109,0.445-0.227,0.887-0.371,1.317c-0.067,0.199-0.15,0.389-0.224,0.583  c-0.13,0.342-0.263,0.683-0.416,1.012c-0.915,1.958-2.219,3.676-3.876,5.022H28.387C26.731,29.654,25.426,27.937,24.511,25.978z   M14,50c0-2.914,1.542-5.593,4-7.071v11.971C15.721,54.435,14,52.415,14,50z M54,57c0,1.654-1.346,3-3,3H23c-1.654,0-3-1.346-3-3v-1  V41.32V36c0-1.654,1.346-3,3-3h28c1.654,0,3,1.346,3,3v5.32V56V57z M56,54.899V42.929c2.458,1.479,4,4.157,4,7.071  C60,52.415,58.279,54.435,56,54.899z"/><path d="M31,22c-1.654,0-3,1.346-3,3h2c0-0.552,0.449-1,1-1s1,0.448,1,1h2C34,23.346,32.654,22,31,22z"/><path d="M43,22c-1.654,0-3,1.346-3,3h2c0-0.552,0.449-1,1-1s1,0.448,1,1h2C46,23.346,44.654,22,43,22z"/><path d="M3,16h8.764l3.789,1.895C15.694,17.965,15.847,18,16,18c0.183,0,0.365-0.05,0.526-0.149C16.82,17.668,17,17.347,17,17v-2h1  c0.552,0,1-0.447,1-1V3c0-0.553-0.448-1-1-1H3C2.448,2,2,2.447,2,3v12C2,15.553,2.448,16,3,16z M4,4h13v9h-1c-0.552,0-1,0.447-1,1  v1.382l-2.553-1.276C12.309,14.036,12.155,14,12,14H4V4z"/><rect x="6" y="6" width="2" height="2"/><rect x="10" y="6" width="5" height="2"/><rect x="6" y="10" width="9" height="2"/><path d="M47.646,38.551c-0.326-0.064-0.654,0.044-0.887,0.276L43.5,42.086L41.914,40.5l3.259-3.259  c0.232-0.232,0.335-0.563,0.277-0.887c-0.059-0.323-0.273-0.597-0.572-0.731c-1.399-0.633-2.94-0.788-4.451-0.446  c-2.604,0.585-4.665,2.646-5.25,5.249c-0.288,1.28-0.222,2.579,0.188,3.796l-7.451,7.45C27.333,52.253,27,53.057,27,53.879  C27,55.6,28.4,57,30.121,57c0.834,0,1.618-0.324,2.207-0.914l7.451-7.45c1.218,0.41,2.517,0.478,3.794,0.188  c2.604-0.585,4.665-2.646,5.25-5.249c0.34-1.514,0.186-3.053-0.446-4.452C48.242,38.823,47.968,38.609,47.646,38.551z   M46.872,43.135c-0.41,1.825-1.912,3.327-3.738,3.737c-1.086,0.245-2.188,0.135-3.188-0.317c-0.38-0.172-0.825-0.089-1.119,0.204  l-7.913,7.913C30.702,54.884,30.421,55,30.121,55C29.503,55,29,54.497,29,53.879c0-0.295,0.12-0.584,0.328-0.793l7.913-7.913  c0.294-0.294,0.375-0.74,0.204-1.119c-0.452-1-0.562-2.103-0.317-3.188c0.41-1.825,1.912-3.327,3.738-3.737  c0.376-0.085,0.755-0.127,1.131-0.127c0.187,0,0.373,0.011,0.557,0.031l-2.761,2.761c-0.391,0.391-0.391,1.023,0,1.414l3,3  c0.391,0.391,1.023,0.391,1.414,0l2.761-2.761C47.03,42.003,46.999,42.571,46.872,43.135z"/><text x="0" y="79" fill="#000000" font-size="5px" font-weight="bold" font-family="'Helvetica Neue', Helvetica, Arial-Unicode, Arial, Sans-serif">Created by Becris</text><text x="0" y="84" fill="#000000" font-size="5px" font-weight="bold" font-family="'Helvetica Neue', Helvetica, Arial-Unicode, Arial, Sans-serif">from the Noun Project</text></svg>